<svg width="90" height="16" viewBox="0 0 90 16" fill="none" xmlns="http://www.w3.org/2000/svg">
<path d="M0.886868 12.4287V0.824315H5.23852C6.13 0.824315 6.87794 0.990524 7.48234 1.32294C8.09051 1.65536 8.54947 2.11243 8.85922 2.69416C9.17276 3.27212 9.32952 3.9294 9.32952 4.666C9.32952 5.41017 9.17276 6.07122 8.85922 6.64918C8.54569 7.22713 8.08295 7.68232 7.471 8.01473C6.85905 8.34337 6.10545 8.50769 5.21019 8.50769H2.32609V6.7795H4.92688C5.44817 6.7795 5.87502 6.68884 6.20744 6.50752C6.53986 6.3262 6.78539 6.07689 6.94405 5.75958C7.10648 5.44228 7.18769 5.07775 7.18769 4.666C7.18769 4.25426 7.10648 3.89162 6.94405 3.57809C6.78539 3.26456 6.53797 3.02092 6.20177 2.84715C5.86936 2.66961 5.44061 2.58084 4.91554 2.58084H2.98903V12.4287H0.886868ZM13.116 0.824315V12.4287H11.0648V0.824315H13.116ZM17.7297 12.6044C17.1782 12.6044 16.6814 12.5061 16.2395 12.3097C15.8013 12.1095 15.4537 11.8149 15.1969 11.4258C14.9438 11.0367 14.8172 10.557 14.8172 9.98657C14.8172 9.4955 14.9079 9.08943 15.0892 8.76834C15.2705 8.44725 15.518 8.19039 15.8315 7.99774C16.145 7.80508 16.4982 7.65965 16.8911 7.56144C17.2877 7.45945 17.6976 7.38578 18.1206 7.34046C18.6306 7.28757 19.0442 7.24035 19.3615 7.1988C19.6789 7.15347 19.9093 7.08548 20.0528 6.99482C20.2001 6.90038 20.2738 6.75495 20.2738 6.55852V6.52452C20.2738 6.09767 20.1473 5.76714 19.8942 5.53293C19.6411 5.29873 19.2765 5.18163 18.8006 5.18163C18.2982 5.18163 17.8997 5.29118 17.605 5.51027C17.3142 5.72936 17.1177 5.98812 17.0157 6.28654L15.1006 6.01456C15.2517 5.48572 15.501 5.04375 15.8485 4.68867C16.196 4.32981 16.621 4.06161 17.1234 3.88407C17.6258 3.70275 18.1811 3.61209 18.7893 3.61209C19.2086 3.61209 19.626 3.6612 20.0415 3.75941C20.457 3.85763 20.8366 4.02006 21.1804 4.2467C21.5241 4.46958 21.7999 4.77366 22.0077 5.15896C22.2192 5.54427 22.325 6.02589 22.325 6.60385V12.4287H20.3531V11.2331H20.2851C20.1605 11.4749 19.9848 11.7015 19.7582 11.9131C19.5353 12.1208 19.2539 12.2889 18.9139 12.4174C18.5777 12.542 18.183 12.6044 17.7297 12.6044ZM18.2623 11.0972C18.674 11.0972 19.031 11.0159 19.3332 10.8535C19.6354 10.6873 19.8677 10.4682 20.0302 10.1962C20.1964 9.92425 20.2795 9.62771 20.2795 9.30663V8.28105C20.2153 8.33393 20.1057 8.38304 19.9508 8.42837C19.7997 8.4737 19.6297 8.51336 19.4409 8.54736C19.252 8.58135 19.065 8.61157 18.8799 8.63802C18.6948 8.66446 18.5343 8.68712 18.3983 8.70601C18.0923 8.74756 17.8184 8.81556 17.5767 8.91C17.3349 9.00443 17.1442 9.13664 17.0044 9.30663C16.8646 9.47284 16.7948 9.68815 16.7948 9.95258C16.7948 10.3303 16.9326 10.6155 17.2084 10.8082C17.4841 11.0008 17.8354 11.0972 18.2623 11.0972ZM25.3507 15.6924C25.0712 15.6924 24.8124 15.6698 24.5745 15.6245C24.3403 15.5829 24.1533 15.5338 24.0135 15.4771L24.4895 13.8793C24.7879 13.9661 25.0542 14.0077 25.2884 14.0039C25.5226 14.0001 25.7285 13.9265 25.906 13.7829C26.0873 13.6432 26.2403 13.409 26.365 13.0803L26.5406 12.61L23.3846 3.72541H25.5604L27.5662 10.2982H27.6569L29.6684 3.72541H31.8499L28.3651 13.4826C28.2027 13.9435 27.9874 14.3382 27.7192 14.6669C27.451 14.9993 27.1224 15.2524 26.7333 15.4261C26.348 15.6037 25.8871 15.6924 25.3507 15.6924ZM37.3178 0.824315H39.8902L43.3353 9.23297H43.4713L46.9163 0.824315H49.4888V12.4287H47.4716V4.45635H47.3639L44.1569 12.3947H42.6497L39.4426 4.43936H39.3349V12.4287H37.3178V0.824315ZM54.1917 12.6044C53.6402 12.6044 53.1435 12.5061 52.7015 12.3097C52.2633 12.1095 51.9158 11.8149 51.6589 11.4258C51.4058 11.0367 51.2793 10.557 51.2793 9.98657C51.2793 9.4955 51.37 9.08943 51.5513 8.76834C51.7326 8.44725 51.98 8.19039 52.2935 7.99774C52.6071 7.80508 52.9603 7.65965 53.3531 7.56144C53.7498 7.45945 54.1596 7.38578 54.5827 7.34046C55.0927 7.28757 55.5063 7.24035 55.8236 7.1988C56.1409 7.15347 56.3713 7.08548 56.5149 6.99482C56.6622 6.90038 56.7359 6.75495 56.7359 6.55852V6.52452C56.7359 6.09767 56.6093 5.76714 56.3562 5.53293C56.1031 5.29873 55.7386 5.18163 55.2626 5.18163C54.7602 5.18163 54.3617 5.29118 54.0671 5.51027C53.7762 5.72936 53.5798 5.98812 53.4778 6.28654L51.5626 6.01456C51.7137 5.48572 51.963 5.04375 52.3105 4.68867C52.6581 4.32981 53.083 4.06161 53.5854 3.88407C54.0878 3.70275 54.6431 3.61209 55.2513 3.61209C55.6706 3.61209 56.088 3.6612 56.5035 3.75941C56.9191 3.85763 57.2987 4.02006 57.6425 4.2467C57.9862 4.46958 58.262 4.77366 58.4697 5.15896C58.6813 5.54427 58.787 6.02589 58.787 6.60385V12.4287H56.8152V11.2331H56.7472C56.6225 11.4749 56.4469 11.7015 56.2202 11.9131C55.9974 12.1208 55.7159 12.2889 55.376 12.4174C55.0398 12.542 54.645 12.6044 54.1917 12.6044ZM54.7244 11.0972C55.1361 11.0972 55.4931 11.0159 55.7953 10.8535C56.0975 10.6873 56.3298 10.4682 56.4922 10.1962C56.6584 9.92425 56.7415 9.62771 56.7415 9.30663V8.28105C56.6773 8.33393 56.5678 8.38304 56.4129 8.42837C56.2618 8.4737 56.0918 8.51336 55.9029 8.54736C55.7141 8.58135 55.5271 8.61157 55.342 8.63802C55.1569 8.66446 54.9963 8.68712 54.8603 8.70601C54.5544 8.74756 54.2805 8.81556 54.0387 8.91C53.797 9.00443 53.6062 9.13664 53.4665 9.30663C53.3267 9.47284 53.2568 9.68815 53.2568 9.95258C53.2568 10.3303 53.3947 10.6155 53.6704 10.8082C53.9462 11.0008 54.2975 11.0972 54.7244 11.0972ZM60.8495 12.4287V3.72541H62.8384V5.17596H62.929C63.0877 4.67356 63.3597 4.28637 63.745 4.01439C64.134 3.73864 64.5779 3.60076 65.0765 3.60076C65.1898 3.60076 65.3164 3.60642 65.4562 3.61776C65.5997 3.62531 65.7187 3.63853 65.8131 3.65742V5.54427C65.7262 5.51405 65.5884 5.4876 65.3995 5.46494C65.2144 5.4385 65.035 5.42528 64.8612 5.42528C64.4872 5.42528 64.151 5.50649 63.8526 5.66892C63.558 5.82758 63.3257 6.04856 63.1557 6.33187C62.9857 6.61518 62.9007 6.94193 62.9007 7.31212V12.4287H60.8495ZM69.0457 9.6976L69.04 7.22146H69.3687L72.4964 3.72541H74.8932L71.0459 8.00907H70.6209L69.0457 9.6976ZM67.1758 12.4287V0.824315H69.227V12.4287H67.1758ZM72.6381 12.4287L69.805 8.46803L71.1875 7.02315L75.0915 12.4287H72.6381ZM79.7548 12.5987C78.8822 12.5987 78.1286 12.4174 77.494 12.0547C76.8632 11.6883 76.3778 11.1708 76.0378 10.5022C75.6978 9.82981 75.5278 9.03843 75.5278 8.12806C75.5278 7.2328 75.6978 6.44708 76.0378 5.77092C76.3815 5.09097 76.8613 4.56212 77.477 4.18438C78.0927 3.80285 78.8161 3.61209 79.6472 3.61209C80.1836 3.61209 80.6898 3.69897 81.1657 3.87274C81.6455 4.04272 82.0685 4.30714 82.4349 4.666C82.8051 5.02486 83.096 5.48194 83.3075 6.03723C83.5191 6.58874 83.6249 7.24602 83.6249 8.00907V8.63802H76.4911V7.25546H81.6587C81.6549 6.8626 81.5699 6.51319 81.4037 6.20721C81.2375 5.89746 81.0052 5.65381 80.7068 5.47627C80.4121 5.29873 80.0684 5.20996 79.6755 5.20996C79.2562 5.20996 78.8879 5.31195 78.5706 5.51594C78.2533 5.71614 78.0059 5.98057 77.8283 6.30921C77.6546 6.63407 77.5658 6.99104 77.562 7.38012V8.58702C77.562 9.0932 77.6546 9.52761 77.8397 9.89025C78.0247 10.2491 78.2835 10.5249 78.6159 10.7175C78.9483 10.9064 79.3374 11.0008 79.7832 11.0008C80.0816 11.0008 80.3517 10.9593 80.5934 10.8762C80.8352 10.7893 81.0448 10.6627 81.2224 10.4965C81.3999 10.3303 81.534 10.1245 81.6247 9.87892L83.5399 10.0942C83.419 10.6004 83.1886 11.0424 82.8486 11.4201C82.5124 11.7941 82.0818 12.085 81.5567 12.2927C81.0316 12.4967 80.431 12.5987 79.7548 12.5987ZM89.7061 3.72541V5.31195H84.7028V3.72541H89.7061ZM85.9381 1.64025H87.9892V9.81092C87.9892 10.0867 88.0308 10.2982 88.1139 10.4455C88.2008 10.5891 88.3141 10.6873 88.4539 10.7402C88.5936 10.7931 88.7485 10.8195 88.9185 10.8195C89.0469 10.8195 89.164 10.8101 89.2698 10.7912C89.3794 10.7723 89.4625 10.7553 89.5191 10.7402L89.8648 12.3437C89.7552 12.3815 89.5985 12.423 89.3945 12.4684C89.1943 12.5137 88.9487 12.5401 88.6579 12.5477C88.1441 12.5628 87.6814 12.4854 87.2696 12.3154C86.8579 12.1416 86.5311 11.8734 86.2894 11.5108C86.0514 11.1481 85.9343 10.6949 85.9381 10.1509V1.64025Z" fill="black"/>
</svg>
